Coordinates
version=1
nRows=14
nColumns=24
inDegrees=yes

Units are S.I. units (second, meters, Newtons, ...)
Angles are in degrees.

endheader
time	pelvis_tilt	pelvis_list	pelvis_rotation	pelvis_tx	pelvis_ty	pelvis_tz	hip_flexion_r	hip_adduction_r	hip_rotation_r	knee_angle_r	ankle_angle_r	subtalar_angle_r	mtp_angle_r	hip_flexion_l	hip_adduction_l	hip_rotation_l	knee_angle_l	ankle_angle_l	subtalar_angle_l	mtp_angle_l	lumbar_extension	lumbar_bending	lumbar_rotation
      0.44600000	     -2.58620746	      4.73410636	     -2.19608808	     -0.77226701	      1.05478011	      0.32398854	     25.76008042	     -1.44281797	     -4.87470181	     -6.83453147	      1.68849416	     -4.72563269	     -0.02771606	     -8.87633807	      8.83775656	      2.63725711	     -4.37600958	      7.99970219	     -8.48157788	     -0.05596549	      5.65605443	     -2.09923505	     -1.45558852
      0.45016667	     -2.61502544	      4.72438589	     -2.19083320	     -0.76667055	      1.05420884	      0.32421545	     25.65074560	     -1.37091184	     -4.81898818	     -6.66024969	      1.67984683	     -4.62742341	     -0.02379850	     -8.94108031	      8.82505047	      2.64443495	     -4.85156713	      8.05533113	     -8.54764863	     -0.06369193	      5.71603588	     -2.06556696	     -1.48922069
      0.45433333	     -2.63337939	      4.64410681	     -2.25057319	     -0.76076195	      1.05368917	      0.32450405	     25.50566036	     -1.20464204	     -4.71836092	     -6.53489085	      1.57430877	     -4.37131738	     -0.00937274	     -9.04309322	      8.74372827	      2.61395613	     -5.30999948	      8.32133933	     -8.61302236	     -0.08491124	      5.78930172	     -1.96671901	     -1.61915923
      0.45850000	     -2.63160358	      4.65088214	     -2.26069224	     -0.75519080	      1.05317820	      0.32466782	     25.39659924	     -1.15910833	     -4.64104999	     -6.55912474	      1.53813465	     -4.30780248	     -0.00478068	     -9.09350788	      8.75361738	      2.61637372	     -5.87456272	      8.34311146	     -8.61942448	     -0.08956249	      5.84134662	     -1.92830342	     -1.64154029
      0.46266667	     -2.63809464	      4.63044089	     -2.25985892	     -0.74948012	      1.05269409	      0.32486941	     25.27447620	     -1.08810478	     -4.51081353	     -6.61727868	      1.46092246	     -4.22179520	      0.00169579	     -9.12207780	      8.72369848	      2.58225831	     -6.48223783	      8.40506540	     -8.61311471	     -0.09313807	      5.88401260	     -1.88435972	     -1.67101565
      0.46683333	     -2.61939468	      4.59615710	     -2.43054472	     -0.74365767	      1.05219907	      0.32535507	     25.15080580	     -0.92844361	     -4.21496974	     -6.74827513	      1.10847826	     -4.06809381	      0.04278305	     -9.16171810	      8.69731183	      2.24648218	     -7.12432097	      8.82095759	     -8.18869127	     -0.10351386	      5.91614436	     -1.81427996	     -1.83341775
      0.47100000	     -2.60969058	      4.56669742	     -2.39528608	     -0.73790254	      1.05181829	      0.32548031	     25.00743545	     -0.87356058	     -4.08590175	     -6.91892274	      1.06910558	     -4.04990007	      0.04994246	     -9.15686526	      8.64475766	      2.23200711	     -7.83842633	      8.80218035	     -8.15194824	     -0.10445775	      5.95933738	     -1.77587905	     -1.83942971
      0.47516667	     -2.60507848	      4.50518530	     -2.50851597	     -0.73202329	      1.05140079	      0.32621740	     24.85362943	     -0.68127554	     -3.60986486	     -7.07646888	      0.68612485	     -4.34499060	      0.14009474	     -9.10064710	      8.53357635	      1.69845471	     -8.65009307	      9.16328932	     -7.12437976	     -0.08312979	      5.99856260	     -1.79226585	     -1.92187567
      0.47933333	     -2.57234252	      4.48375704	     -2.50162587	     -0.72625722	      1.05109603	      0.32630497	     24.70880817	     -0.63977915	     -3.49908376	     -7.36859245	      0.62809708	     -4.33865171	      0.14767520	     -9.06634936	      8.49338356	      1.66627119	     -9.46757208	      9.13040782	     -7.12176342	     -0.08092166	      6.03621386	     -1.70105082	     -1.92823441
      0.48350000	     -2.56928645	      4.45940726	     -2.65381899	     -0.72044162	      1.05069618	      0.32686617	     24.61762232	     -0.50197810	     -3.19031437	     -7.69361256	      0.18650998	     -4.51552842	      0.20787068	     -8.94643422	      8.44158695	      1.14800787	    -10.37315152	      9.20462405	     -6.49975515	     -0.03758377	      5.99480670	     -1.60046507	     -1.95319649
      0.48766667	     -2.55476685	      4.39743140	     -2.69369819	     -0.71458814	      1.05043373	      0.32741712	     24.46003079	     -0.36383708	     -2.86611104	     -7.97737887	     -0.08068414	     -4.86430920	      0.29597793	     -8.80323698	      8.30679337	      0.71417030	    -11.37388139	      9.32411861	     -5.73118656	      0.04453714	      5.99034520	     -1.53963823	     -1.92276608
      0.49183333	     -2.48561560	      4.34022209	     -2.66904927	     -0.70874140	      1.05032033	      0.32749250	     24.24895081	     -0.31039533	     -2.72123532	     -8.30725095	     -0.15490836	     -4.83796236	      0.30533149	     -8.71851518	      8.20409874	      0.65797994	    -12.37775447	      9.26669784	     -5.71777411	      0.05326146	      6.06438288	     -1.46326382	     -1.91835504
      0.49600000	     -2.49849708	      4.25312710	     -2.79331107	     -0.70277871	      1.05006899	      0.32833999	     24.11172572	     -0.10091598	     -2.27576193	     -8.59507049	     -0.68558824	     -5.14886417	      0.40314459	     -8.48118409	      8.01756302	     -0.01513958	    -13.49583991	      9.23420510	     -4.63112774	      0.19491272	      6.07935249	     -1.41924745	     -1.87869064
      0.50016667	     -2.48253855	      4.17025313	     -2.83531960	     -0.69692206	      1.04992678	      0.32888677	     23.95579894	      0.04284936	     -2.03703744	     -8.94159917	     -0.94982729	     -5.56023108	      0.52245685	     -8.23736084	      7.83645780	     -0.47225301	    -14.69114870	      9.26716211	     -3.87229972	      0.38688396	      6.07996911	     -1.28875014	     -1.81629364
